<?xml version="1.0" encoding="UTF-8" standalone="no"?>
<!-- Created with Inkscape (http://www.inkscape.org/) -->

<svg
   xmlns:dc="http://purl.org/dc/elements/1.1/"
   xmlns:cc="http://creativecommons.org/ns#"
   xmlns:rdf="http://www.w3.org/1999/02/22-rdf-syntax-ns#"
   xmlns:svg="http://www.w3.org/2000/svg"
   xmlns="http://www.w3.org/2000/svg"
   xmlns:sodipodi="http://sodipodi.sourceforge.net/DTD/sodipodi-0.dtd"
   xmlns:inkscape="http://www.inkscape.org/namespaces/inkscape"
   width="500"
   height="300"
   id="svg2"
   version="1.1"
   inkscape:version="0.48.2 r9819"
   inkscape:export-filename="C:\Users\jmunoz.ATMARTINEZ\Desktop\macho.png"
   inkscape:export-xdpi="90"
   inkscape:export-ydpi="90"
   sodipodi:docname="logo.svg">
  <defs
     id="defs4" />
  <sodipodi:namedview
     id="base"
     pagecolor="#ffffff"
     bordercolor="#666666"
     borderopacity="1.0"
     inkscape:pageopacity="0.0"
     inkscape:pageshadow="2"
     inkscape:zoom="0.7"
     inkscape:cx="185.13707"
     inkscape:cy="135.40891"
     inkscape:document-units="px"
     inkscape:current-layer="layer3"
     showgrid="false"
     inkscape:window-width="1366"
     inkscape:window-height="721"
     inkscape:window-x="-4"
     inkscape:window-y="-4"
     inkscape:window-maximized="1"
     borderlayer="false"
     showborder="true"
     inkscape:showpageshadow="false" />
  <metadata
     id="metadata7">
    <rdf:RDF>
      <cc:Work
         rdf:about="">
        <dc:format>image/svg+xml</dc:format>
        <dc:type
           rdf:resource="http://purl.org/dc/dcmitype/StillImage" />
        <dc:title></dc:title>
      </cc:Work>
    </rdf:RDF>
  </metadata>
  <g
     inkscape:groupmode="layer"
     id="layer3"
     inkscape:label="moustache lines"
     style="display:inline"
     transform="translate(0,-200)"
     sodipodi:insensitive="true">
    <g
       id="g3813"
       transform="translate(-6,150)"
       inkscape:export-filename="C:\Juan\Dropbox\Facultad\Tesis\IDE\docs\images\icon.png"
       inkscape:export-xdpi="90"
       inkscape:export-ydpi="90">
      <path
         sodipodi:nodetypes="csssscsssscc"
         inkscape:connector-curvature="0"
         id="path3007-1"
         d="m 256.01664,256.77363 c 33.57143,41.81853 126.31421,41.3028 168.39284,35.69634 29.89845,-3.98359 68.73254,-29.23241 73.21429,-47.71429 5.40598,-22.29321 -7.23593,-36.8252 -29.46428,-49.24999 -13.66364,-7.63745 -26.00811,-2.32886 -27.32143,2.32143 -2.89933,10.26612 4.64286,16.42856 4.64286,16.42856 0,0 -4.64286,-22.67856 20.35714,-10.17856 17.20228,8.60114 19.52324,43.3842 -13.92857,42.67857 C 432.26775,246.34136 409.561,230.61365 383.6952,207.82711 353.69521,181.39854 331.58032,165.12228 302.3533,165.0133 271.74439,164.89916 256,184.19135 256,184.19135 z"
         style="fill:#000000;fill-opacity:1;stroke:none;display:inline" />
      <path
         sodipodi:nodetypes="csssscsssscc"
         inkscape:connector-curvature="0"
         id="path3007-1-7"
         d="m 257.85164,256.79766 c -33.57143,41.81853 -126.31421,41.3028 -168.392852,35.69634 -29.89845,-3.98359 -68.73254,-29.23241 -73.21429,-47.71429 -5.405981,-22.29321 7.23593,-36.8252 29.46428,-49.24999 13.66364,-7.63745 26.00811,-2.32886 27.32143,2.32143 2.89933,10.26612 -4.64286,16.42856 -4.64286,16.42856 0,0 4.64286,-22.67856 -20.35714,-10.17856 -17.20228,8.60114 -19.52324,43.3842 13.92857,42.67857 19.64174,-0.41433 42.348502,-16.14204 68.214302,-38.92858 29.99999,-26.42857 52.11488,-42.70483 81.3419,-42.81381 30.60891,-0.11414 46.3533,19.17805 46.3533,19.17805 z"
         style="fill:#000000;fill-opacity:1;stroke:none;display:inline" />
    </g>
  </g>
  <g
     inkscape:label="text"
     inkscape:groupmode="layer"
     id="layer1"
     transform="translate(0,-752.36218)"
     style="display:inline"
     sodipodi:insensitive="true">
    <text
       xml:space="preserve"
       style="font-size:119.52496338px;font-style:normal;font-weight:normal;line-height:125%;letter-spacing:0px;word-spacing:0px;fill:#000000;fill-opacity:1;stroke:none;font-family:Sans"
       x="69.82988"
       y="845.9671"
       id="text2996"
       sodipodi:linespacing="125%"><tspan
         sodipodi:role="line"
         id="tspan2998"
         x="69.82988"
         y="845.9671">macho</tspan></text>
    <text
       xml:space="preserve"
       style="font-size:22.49900246px;font-style:normal;font-weight:normal;line-height:125%;letter-spacing:0px;word-spacing:0px;fill:#000000;fill-opacity:1;stroke:none;font-family:Sans"
       x="32.397564"
       y="1039.3301"
       id="text2996-1"
       sodipodi:linespacing="125%"><tspan
         sodipodi:role="line"
         id="tspan2998-7"
         x="32.397564"
         y="1039.3301">minimal advanced clojure hacking optimizer</tspan></text>
  </g>
</svg>
